<?xml version="1.0" encoding="UTF-8"?>
<svg width="400" height="400" version="1.1" xmlns="http://www.w3.org/2000/svg" xmlns:xlink="http://www.w3.org/1999/xlink"><use transform="translate(197.68237 .01181)" width="100%" height="100%" xlink:href="#c"/><g id="c" transform="translate(-415.97339,1.9966606)"><path d="m418.30283 296.83862h98.83528v98.83528h-98.83528z" color="#000000" fill="#858585" stroke-width="4"/><path d="m418.30283 296.83862h98.83528l-98.83528 98.83528z" color="#000000" fill="#d3d3d3" stroke-width="4"/><path d="m418.30283 296.83862h98.83528v98.83528z" color="#000000" fill="#c1c1c1" stroke-width="4"/><path d="m517.1263 296.84959-49.40625 49.40625 49.40625 49.40625z" color="#000000" fill="#646464" stroke-width="4"/><rect x="426.28952" y="304.82532" width="82.8619" height="82.8619" color="#000000" fill="#a6a6a6" stroke-width="4"/></g><g id="b" transform="translate(298.5025,1.9966606)"><path d="m0.33277884 0.33277884h98.83528116v98.83528116h-98.83528116z" color="#000000" fill="#b85252" stroke-width="4"/><path d="M 0.33277884,0.33277884 H 99.16806 L 0.33277884,99.16806 Z" color="#000000" fill="#f3b3b3" stroke-width="4"/><path d="m0.33277884 0.33277884h98.83528116v98.83528116z" color="#000000" fill="#ed9494" stroke-width="4"/><path d="M 99.15625,0.34375 49.75,49.75 99.15625,99.15625 Z" color="#000000" fill="#8a3d3d" stroke-width="4"/><rect x="8.3194675" y="8.3194675" width="82.8619" height="82.8619" color="#000000" fill="#e66666" stroke-width="4"/></g><use transform="translate(0,98.835281)" xlink:href="#b"/><use transform="translate(0,197.67056)" xlink:href="#b"/><use transform="translate(0,296.50584)" xlink:href="#b"/><g id="a" transform="translate(1.99666,1.9966606)"><path d="m0.33277884 0.33277884h98.83528116v98.83528116h-98.83528116z" color="#000000" fill="#5252b8" stroke-width="4"/><path d="M 0.33277884,0.33277884 H 99.16806 L 0.33277884,99.16806 Z" color="#000000" fill="#b3b3f3" stroke-width="4"/><path d="m0.33277884 0.33277884h98.83528116v98.83528116z" color="#000000" fill="#9494ed" stroke-width="4"/><path d="M 99.15625,0.34375 49.75,49.75 99.15625,99.15625 Z" color="#000000" fill="#3d3d8a" stroke-width="4"/><rect x="8.3194675" y="8.3194675" width="82.8619" height="82.8619" color="#000000" fill="#6666e6" stroke-width="4"/></g><use transform="translate(0,98.835281)" xlink:href="#a"/><use transform="translate(0,197.67056)" xlink:href="#a"/><use transform="translate(98.835281)" xlink:href="#a"/><use transform="translate(98.835281,98.835281)" xlink:href="#a"/><use transform="translate(98.835281,197.67056)" xlink:href="#a"/><use transform="translate(98.835281,296.50584)" xlink:href="#a"/><use transform="translate(197.67056)" xlink:href="#a"/><use transform="translate(197.67056,98.835281)" xlink:href="#a"/><use transform="translate(197.67056,197.67056)" xlink:href="#a"/><g fill="#ffffff" font-family="Arial" font-size="64px" stroke-width="4" text-anchor="middle"><text x="54.15332" y="74.747078" color="#000000" text-align="center" xml:space="preserve"><tspan x="54.15332" y="74.747078">1</tspan></text><text x="152.98859" y="74.747078" color="#000000" text-align="center" xml:space="preserve"><tspan x="152.98859" y="74.747078">2</tspan></text><text x="251.82391" y="74.747078" color="#000000" text-align="center" xml:space="preserve"><tspan x="251.82391" y="74.747078">3</tspan></text><text x="350.65918" y="74.747078" color="#000000" text-align="center" xml:space="preserve"><tspan x="350.65918" y="74.747078">A</tspan></text><text x="54.15332" y="173.58235" color="#000000" text-align="center" xml:space="preserve"><tspan x="54.15332" y="173.58235">4</tspan></text><text x="152.98859" y="173.58235" color="#000000" text-align="center" xml:space="preserve"><tspan x="152.98859" y="173.58235">5</tspan></text><text x="251.82391" y="173.58235" color="#000000" text-align="center" xml:space="preserve"><tspan x="251.82391" y="173.58235">6</tspan></text><text x="350.65918" y="173.58235" color="#000000" text-align="center" xml:space="preserve"><tspan x="350.65918" y="173.58235">B</tspan></text><text x="54.15332" y="272.41766" color="#000000" text-align="center" xml:space="preserve"><tspan x="54.15332" y="272.41766">7</tspan></text><text x="152.98859" y="272.41766" color="#000000" text-align="center" xml:space="preserve"><tspan x="152.98859" y="272.41766">8</tspan></text><text x="251.82391" y="272.41766" color="#000000" text-align="center" xml:space="preserve"><tspan x="251.82391" y="272.41766">9</tspan></text><text x="350.65918" y="272.41766" color="#000000" text-align="center" xml:space="preserve"><tspan x="350.65918" y="272.41766">C</tspan></text></g><g transform="translate(-415.97339,1.9966606)" color="#000000" fill="#fff" stroke-width="4"><path d="m451.46503 346.07779 2.24609-6.93359c5.17577 1.82298 8.93553 3.40175 11.2793 4.73632-0.61851-5.89186-0.94403-9.94459-0.97657-12.1582h7.08008c-0.0977 3.22273-0.47202 7.25918-1.12304 12.10938 3.35284-1.69265 7.19398-3.25515 11.52343-4.6875l2.2461 6.93359c-4.13415 1.36724-8.18688 2.2787-12.15821 2.73437 1.98566 1.72532 4.78513 4.80149 8.39844 9.22852l-5.85937 4.15039c-1.88805-2.57157-4.11786-6.07091-6.68946-10.49805-2.40887 4.5899-4.52475 8.08924-6.34765 10.49805l-5.76172-4.15039c3.77603-4.6549 6.47785-7.73107 8.10547-9.22852-4.19923-0.81374-8.18686-1.7252-11.96289-2.73437z"/></g><g fill="#ffffff" font-family="Arial" font-size="64px" stroke-width="4" text-anchor="middle"><text x="152.98859" y="371.25293" color="#000000" text-align="center" xml:space="preserve"><tspan x="152.98859" y="371.25293">0</tspan></text><text x="251.82391" y="371.25293" color="#000000" text-align="center" xml:space="preserve"><tspan x="251.82391" y="371.25293">#</tspan></text><text x="350.65918" y="371.25293" color="#000000" text-align="center" xml:space="preserve"><tspan x="350.65918" y="371.25293">D</tspan></text></g></svg>
